<?xml version="1.0" encoding="UTF-8"?>
<svg version="1.1" xmlns="http://www.w3.org/2000/svg" width="400" height="400">
<path d="M0 0 C132 0 264 0 400 0 C400 132 400 264 400 400 C268 400 136 400 0 400 C0 268 0 136 0 0 Z " fill="#000B42" transform="translate(0,0)"/>
<path d="M0 0 C5.07678339 1.05229909 10.02824096 2.5374192 15 4 C16.00417969 4.28875 17.00835937 4.5775 18.04296875 4.875 C39.34046791 11.45519284 57.36301869 23.27863701 73 39 C73.88300781 39.88300781 74.76601563 40.76601562 75.67578125 41.67578125 C99.11169113 66.27801946 111.62288861 100.23615507 111.35400391 134.01245117 C110.97398059 148.62717753 109.62585059 165.7318575 103 179 C98.62726655 182.89318404 95.39082223 183.50364918 89.625 183.375 C88.935271 183.36065918 88.24554199 183.34631836 87.53491211 183.33154297 C76.90013874 183.0063942 66.32099872 181.58024968 56 179 C57.14275391 180.07314453 57.14275391 180.07314453 58.30859375 181.16796875 C65.65988904 188.20977355 71.54434371 195.39551883 77 204 C77.47566406 204.71414063 77.95132813 205.42828125 78.44140625 206.1640625 C80.80744599 209.90685707 81.8946406 212.61626105 81 217 C69.04007839 238.5372026 39.95484126 254.86216352 16.93457031 261.60498047 C12.31908536 262.86810972 7.67045359 263.95791096 3 265 C2.38036377 265.17877686 1.76072754 265.35755371 1.12231445 265.54174805 C-6.06394518 267.47966431 -13.36810257 267.33681794 -20.75366211 267.31567383 C-23.03353937 267.31253981 -25.31208167 267.33594044 -27.59179688 267.36132812 C-58.71336407 267.49709413 -88.6140878 255.43019274 -112 235 C-112.78375 234.36449219 -113.5675 233.72898437 -114.375 233.07421875 C-119.94698333 228.48366431 -126.51232006 223.06556257 -127.40625 215.61328125 C-126.93594312 211.43026334 -125.77918541 209.20708824 -123.5 205.6875 C-123.1397876 205.12844971 -122.7795752 204.56939941 -122.40844727 203.9934082 C-116.99936262 195.74869822 -110.55916624 188.33806724 -104 181 C-107.17212729 181 -109.5680987 181.61205766 -112.625 182.4375 C-117.79881043 183.74482755 -122.67312626 184.72940409 -128 185 C-128.97090576 185.05679932 -128.97090576 185.05679932 -129.96142578 185.11474609 C-132.22416661 185.23383772 -134.48512223 185.30909783 -136.75 185.375 C-137.85057739 185.43240356 -137.85057739 185.43240356 -138.97338867 185.4909668 C-142.80336093 185.54918903 -144.7426957 185.18962975 -147.8515625 182.8984375 C-161.39118024 164.6322623 -160.17028404 132.07549116 -157.27758789 110.91455078 C-156.70015677 107.55774012 -155.91030099 104.27845819 -155 101 C-154.77957031 100.19868652 -154.55914062 99.39737305 -154.33203125 98.57177734 C-147.92277883 76.07581002 -137.09385017 56.98504057 -121 40 C-120.16726562 39.1028125 -119.33453125 38.205625 -118.4765625 37.28125 C-111.62091312 30.12403247 -104.29305352 24.38590299 -96 19 C-94.38351563 17.95005859 -94.38351563 17.95005859 -92.734375 16.87890625 C-80.19142632 9.25505237 -61.08162406 -0.70735367 -46 1 C-40.79320081 4.18193284 -38.61344497 8.72738968 -35.9375 14 C-35.28225342 15.27061279 -35.28225342 15.27061279 -34.61376953 16.56689453 C-26.65712716 32.30349808 -26.65712716 32.30349808 -27 41 C-26.34 41 -25.68 41 -25 41 C-24.91105469 39.72125 -24.82210937 38.4425 -24.73046875 37.125 C-24.12205941 31.69709677 -22.39604678 27.02039215 -20.3125 22 C-19.95454346 21.122229 -19.59658691 20.24445801 -19.2277832 19.34008789 C-16.77014633 13.46532203 -14.15473745 7.89008921 -10 3 C-9.59394531 2.43410156 -9.18789062 1.86820312 -8.76953125 1.28515625 C-5.90693781 -0.79385753 -3.44891201 -0.27218828 0 0 Z " fill="#FBFBFC" transform="translate(224,66)"/>
<path d="M0 0 C7.07837792 0.4006629 13.35925297 2.62039898 20 5 C18.64938359 9.30387811 16.96884743 13.29066276 15.0625 17.375 C6.65889034 36.35591897 7.24038473 57.40993939 14.25 76.75 C18.78360087 87.66572352 24.66929823 96.62664959 33 105 C33.65226562 105.68707031 34.30453125 106.37414062 34.9765625 107.08203125 C50.78614678 122.55589076 71.81289487 126.52162023 93 128 C92.51358785 134.84817102 91.64006048 141.33042073 90 148 C64.16059705 149.49552815 40.09689746 139.43664691 20.7890625 122.63085938 C1.08423565 104.79937874 -10.64378538 80.03540504 -12.13720703 53.56835938 C-13.00693258 34.31067066 -9.05464314 18.42001561 -1 1 C-0.67 0.67 -0.34 0.34 0 0 Z " fill="#030D44" transform="translate(224,84)"/>
<path d="M0 0 C12.69366893 25.77955797 16.92794408 53.72476013 7.83447266 81.64941406 C-1.5254725 108.01499393 -20.4831289 128.80754033 -45.7043457 140.84716797 C-57.69419945 146.30555516 -70.75806398 149.85431845 -84 149 C-86.7758018 142.43901392 -88.0026554 136.04007955 -89 129 C-87.88625 128.91363281 -86.7725 128.82726562 -85.625 128.73828125 C-64.1445647 126.85166242 -45.03042425 120.21703669 -30 104 C-29.22076172 103.21109375 -29.22076172 103.21109375 -28.42578125 102.40625 C-12.95489413 85.99667984 -8.21201462 65.19437509 -8.69140625 43.26171875 C-9.2102295 31.36753429 -12.97542577 21.08734491 -18.609375 10.6953125 C-20 8 -20 8 -20 6 C-18.06305322 5.18618205 -16.12542289 4.37399084 -14.1875 3.5625 C-13.10855469 3.11003906 -12.02960938 2.65757813 -10.91796875 2.19140625 C-7.0245625 0.601729 -4.18789342 -0.11318631 0 0 Z " fill="#030E44" transform="translate(172,85)"/>
<path d="M0 0 C1.46953125 0.40025391 1.46953125 0.40025391 2.96875 0.80859375 C24.34636753 7.13749368 45.64352192 22.64484866 57 42 C57.07769368 45.12567661 55.90072881 46.11608762 53.85546875 48.5078125 C52.97503906 49.37148438 52.09460938 50.23515625 51.1875 51.125 C50.31480469 51.99382812 49.44210937 52.86265625 48.54296875 53.7578125 C46.37398189 55.67025253 44.64436897 56.90280262 42 58 C41.47792969 57.18917969 40.95585937 56.37835938 40.41796875 55.54296875 C28.27963438 37.10289985 12.3106941 24.81883002 -9.25 19.1875 C-32.05018516 14.78435658 -53.53785681 18.3744039 -73 31 C-82.81345808 37.86528201 -89.74379409 45.84097405 -96 56 C-96.66 56.99 -97.32 57.98 -98 59 C-102.12417063 57.3383196 -105.06554039 54.37661982 -108.25 51.375 C-108.80429688 50.859375 -109.35859375 50.34375 -109.9296875 49.8125 C-111.2902712 48.54574965 -112.64565837 47.27342185 -114 46 C-110.08901904 37.20029285 -103.68600387 30.74240754 -97 24 C-96.18273437 23.16984375 -95.36546875 22.3396875 -94.5234375 21.484375 C-70.40627947 -1.58421094 -31.78188148 -9.86776159 0 0 Z " fill="#020D44" transform="translate(229,235)"/>
<path d="M0 0 C4.67199091 1.53093488 8.02170005 4.10757395 11.8125 7.125 C12.40998047 7.59292969 13.00746094 8.06085938 13.62304688 8.54296875 C15.08616792 9.69005565 16.54366297 10.84431234 18 12 C17.31581199 15.13286087 16.19830898 17.87061238 14.9375 20.8125 C10.98496382 31.74010004 12.23301706 42.28407145 16.52734375 52.90625 C21.59082901 63.54359834 29.99437484 69.92212626 41 74 C43.79939693 74.57489098 46.59537033 74.90406712 49.4375 75.1875 C50.16904297 75.26935547 50.90058594 75.35121094 51.65429688 75.43554688 C53.43514466 75.63341885 55.21744927 75.81810707 57 76 C57.33923576 78.35344806 57.67150534 80.7075484 58 83.0625 C58.09539062 83.71927734 58.19078125 84.37605469 58.2890625 85.05273438 C58.88887674 89.40138763 59.09127093 93.61329071 59 98 C40.51561408 98.62619626 24.18377152 94.56844211 9.9375 82.125 C-0.940404 71.44280042 -9.72398223 56.41728026 -10.3984375 40.8515625 C-10.41125594 39.10940464 -10.40304704 37.36697924 -10.375 35.625 C-10.36484863 34.705979 -10.35469727 33.78695801 -10.34423828 32.84008789 C-10.09925935 22.08285391 -8.03096279 8.03096279 0 0 Z " fill="#030D44" transform="translate(259,97)"/>
<path d="M0 0 C9.02758118 16.49697712 13.24132492 33.22393446 7.9375 51.75 C2.70517907 68.41932438 -7.65489745 81.75137183 -22.8046875 90.3828125 C-33.32312482 95.70632479 -44.19455343 98.44548855 -56 98 C-56.26442904 90.40501039 -55.60881575 83.42640842 -54 76 C-53.20078125 75.85304688 -52.4015625 75.70609375 -51.578125 75.5546875 C-40.09544594 73.20963333 -27.77391236 69.12546828 -20.9375 58.9375 C-13.99887143 47.87513869 -11.78971302 35.93297641 -14.6484375 23.0859375 C-15.38558528 20.8031402 -15.38558528 20.8031402 -16.24609375 18.859375 C-17.15751884 16.61150794 -17.57680844 14.38302041 -18 12 C-16.06401165 10.37316948 -14.12629031 8.74848531 -12.1875 7.125 C-11.64029297 6.66480469 -11.09308594 6.20460938 -10.52929688 5.73046875 C-3.67764946 0 -3.67764946 0 0 0 Z " fill="#040F45" transform="translate(138,100)"/>
<path d="M0 0 C6.298964 5.14999386 12.02095093 11.34084594 16.01953125 18.46875 C16.01953125 19.45875 16.01953125 20.44875 16.01953125 21.46875 C13.43787325 22.61848839 10.85434818 23.76365359 8.26953125 24.90625 C7.53992188 25.23173828 6.8103125 25.55722656 6.05859375 25.89257812 C4.99511719 26.36147461 4.99511719 26.36147461 3.91015625 26.83984375 C3.26079102 27.12786865 2.61142578 27.41589355 1.94238281 27.71264648 C-0.01119346 28.48083157 -1.9351808 29.00517793 -3.98046875 29.46875 C-4.38136719 28.88867188 -4.78226562 28.30859375 -5.1953125 27.7109375 C-12.55575385 17.59658953 -22.57445975 11.53641817 -34.98046875 9.46875 C-46.82320257 8.19690711 -57.30302137 12.07379093 -66.58984375 19.296875 C-69.93766902 22.33836332 -72.57332729 25.64982515 -74.98046875 29.46875 C-80.13230686 28.93783539 -84.17797562 27.74036627 -88.85546875 25.53125 C-89.98726562 25.00660156 -91.1190625 24.48195313 -92.28515625 23.94140625 C-94.98046875 22.46875 -94.98046875 22.46875 -95.98046875 20.46875 C-88.43510425 4.77875017 -74.84066735 -4.94834808 -58.98046875 -10.96875 C-38.81292778 -17.99587756 -16.77808835 -12.17273641 0 0 Z " fill="#030D44" transform="translate(240.98046875,281.53125)"/>
<path d="M0 0 C2.74077452 2.74077452 3.39899175 5.95706084 4.5625 9.5625 C11.21600751 29.12230941 21.99237721 44.85451725 37 59 C34.09490258 60.45254871 32.40698599 59.47142151 29.3125 58.625 C9.9753987 53.36688097 -10.81343053 54.94983531 -30 60 C-31.66369466 60.34786343 -33.32906878 60.68874811 -35 61 C-29.61011236 54.64269663 -29.61011236 54.64269663 -26.87890625 51.765625 C-13.04436404 37.09189912 -5.45117371 19.11678892 0 0 Z " fill="#050F45" transform="translate(198,160)"/>
<path d="M0 0 C7.42870249 6.7533659 12.26470304 15.21868227 16.9375 24 C17.33936523 24.75442383 17.74123047 25.50884766 18.15527344 26.28613281 C21 31.74038226 21 31.74038226 21 34 C15.44445795 34.85469878 12.39009461 32.75958136 8.046875 29.640625 C3.578195 26.05885859 0.33584941 21.61842545 -1 16 C-1.36584531 10.59071575 -1.72749505 5.18248515 0 0 Z " fill="#061147" transform="translate(289,122)"/>
<path d="M0 0 C3.40645123 1.78590647 4.94618337 3.154913 6.375 6.75 C-0.18385302 7.94251873 -6.66051001 7.89805716 -13.3125 7.875 C-15.00342773 7.88080078 -15.00342773 7.88080078 -16.72851562 7.88671875 C-17.81197266 7.88542969 -18.89542969 7.88414062 -20.01171875 7.8828125 C-20.99358154 7.88168457 -21.97544434 7.88055664 -22.98706055 7.87939453 C-25.35764783 7.76311399 -27.35888919 7.42563985 -29.625 6.75 C-29.625 6.09 -29.625 5.43 -29.625 4.75 C-27.76171875 3.27734375 -27.76171875 3.27734375 -25.3125 1.6875 C-24.51199219 1.16027344 -23.71148437 0.63304687 -22.88671875 0.08984375 C-15.91662151 -4.03924667 -7.13197338 -3.38431342 0 0 Z " fill="#0E184C" transform="translate(212.625,309.25)"/>
<path d="M0 0 C0.66 0 1.32 0 2 0 C4.3528979 4.70579581 3.68125158 10.85848719 2.12890625 15.73828125 C-1.136139 22.79292001 -5.7880054 27.91526568 -13 31 C-13.99 31 -14.98 31 -16 31 C-12.92789855 20.05563858 -7.28174084 8.78092277 0 0 Z " fill="#081348" transform="translate(106,127)"/>
</svg>
